<svg width="366" height="729" viewBox="0 0 366 729" fill="none" xmlns="http://www.w3.org/2000/svg">
<rect x="12.2026" y="0.724365" width="353.314" height="727.722" rx="67" fill="#6379F4"/>
<mask id="mask0_68_963" style="mask-type:alpha" maskUnits="userSpaceOnUse" x="12" y="0" width="354" height="729">
<rect x="12.2026" y="0.724365" width="353.314" height="727.722" rx="67" fill="#6379F4"/>
</mask>
<g mask="url(#mask0_68_963)">
<path d="M-98.5195 148.905C-184.056 148.905 -254.163 232.982 -238.791 317.125V696.806H567.504V56.6218C537.651 132.145 490.514 164.198 409.304 164.198C326.23 164.198 298.036 70.3325 218.409 70.3325C108.056 70.3325 146.691 306.579 63.3723 306.579C-24.8808 306.579 -15.2005 148.905 -98.5195 148.905Z" fill="url(#paint0_linear_68_963)" fill-opacity="0.5"/>
<path d="M-238.791 321.344C-254.163 237.2 -184.056 153.124 -98.5194 153.124C-15.2005 153.124 -24.8808 310.797 63.3723 310.797C146.691 310.797 108.056 74.5513 218.409 74.5513C298.036 74.5513 326.23 168.417 409.304 168.417C490.514 168.417 537.651 136.364 567.504 60.8406" stroke="white" stroke-opacity="0.15" stroke-width="5"/>
<path d="M128.234 402.026C42.6982 402.026 -27.4093 486.103 -12.0366 570.246V949.927H794.258V309.743C764.405 385.266 717.268 417.319 636.058 417.319C552.984 417.319 524.79 323.453 445.163 323.453C334.81 323.453 373.445 559.699 290.126 559.699C201.873 559.699 211.553 402.026 128.234 402.026Z" fill="url(#paint1_linear_68_963)" fill-opacity="0.5"/>
<path d="M-12.0366 574.465C-27.4093 490.321 42.6982 406.245 128.234 406.245C211.553 406.245 201.873 563.918 290.126 563.918C373.445 563.918 334.81 327.672 445.163 327.672C524.79 327.672 552.984 421.538 636.058 421.538C717.267 421.538 764.405 389.485 794.258 313.961" stroke="white" stroke-opacity="0.15" stroke-width="5"/>
</g>
<circle cx="6.43" cy="629.863" r="5.82844" fill="#C2CCFF"/>
<circle cx="6.42951" cy="660.948" r="5.82844" fill="#C2CCFF"/>
<circle cx="6.42951" cy="692.033" r="5.82844" fill="#C2CCFF"/>
<circle cx="6.42951" cy="723.117" r="5.82844" fill="#C2CCFF"/>
<circle cx="37.5145" cy="629.863" r="5.82844" fill="#C2CCFF"/>
<circle cx="37.5145" cy="660.948" r="5.82844" fill="#C2CCFF"/>
<circle cx="37.5145" cy="692.033" r="5.82844" fill="#C2CCFF"/>
<circle cx="37.5145" cy="723.117" r="5.82844" fill="#C2CCFF"/>
<circle cx="68.5994" cy="629.863" r="5.82844" fill="#C2CCFF"/>
<circle cx="68.5994" cy="660.948" r="5.82844" fill="#C2CCFF"/>
<circle cx="68.5994" cy="692.033" r="5.82844" fill="#C2CCFF"/>
<circle cx="68.5994" cy="723.117" r="5.82844" fill="#C2CCFF"/>
<defs>
<linearGradient id="paint0_linear_68_963" x1="163.293" y1="56.6218" x2="163.021" y2="661.475" gradientUnits="userSpaceOnUse">
<stop stop-color="white" stop-opacity="0.2"/>
<stop offset="1" stop-color="white" stop-opacity="0"/>
</linearGradient>
<linearGradient id="paint1_linear_68_963" x1="390.047" y1="309.743" x2="389.774" y2="914.596" gradientUnits="userSpaceOnUse">
<stop stop-color="white" stop-opacity="0.2"/>
<stop offset="1" stop-color="white" stop-opacity="0"/>
</linearGradient>
</defs>
</svg>
